<?xml version="1.0" encoding="utf-8"?>
<!-- Generator: Adobe Illustrator 18.1.0, SVG Export Plug-In . SVG Version: 6.00 Build 0)  -->
<svg version="1.1" id="Layer_1" xmlns="http://www.w3.org/2000/svg" xmlns:xlink="http://www.w3.org/1999/xlink" x="0px" y="0px"
	 viewBox="0 0 100 100" enable-background="new 0 0 100 100" xml:space="preserve">
<rect fill="#EAE3D6" width="100" height="100"/>
<radialGradient id="SVGID_1_" cx="543.3527" cy="6203.2192" r="33.0701" gradientTransform="matrix(1.2677 0 0 0.1339 -638.7378 -738.6193)" gradientUnits="userSpaceOnUse">
	<stop  offset="0" style="stop-color:#CDBDA2"/>
	<stop  offset="0.163" style="stop-color:#D2C4AC"/>
	<stop  offset="0.7048" style="stop-color:#E3DACA"/>
	<stop  offset="1" style="stop-color:#EAE3D6"/>
</radialGradient>
<ellipse fill="url(#SVGID_1_)" cx="50.1" cy="92" rx="41.9" ry="4.4"/>
<radialGradient id="SVGID_2_" cx="520.9385" cy="6206.3657" r="33.0701" gradientTransform="matrix(1.2677 0 0 0.1339 -638.7378 -738.6193)" gradientUnits="userSpaceOnUse">
	<stop  offset="0" style="stop-color:#CDBDA2"/>
	<stop  offset="0.163" style="stop-color:#D2C4AC"/>
	<stop  offset="0.7048" style="stop-color:#E3DACA"/>
	<stop  offset="1" style="stop-color:#EAE3D6"/>
</radialGradient>
<ellipse fill="url(#SVGID_2_)" cx="21.7" cy="92.4" rx="41.9" ry="4.4"/>
<g>
	<path fill="#A52B22" d="M66.9,65.6l11.3,2.1c-0.2,4.3,2.4,18.3-8.2,19c-6.9,0.5-3-4.6-2.5-8.1C68,74.6,67.4,69.9,66.9,65.6z"/>
	<g>
		<path fill="#CD3E27" d="M38.4,37c14,19.1,60-10.9,57.8,22.7c-0.4,6.1-2.1,13.6-1.2,19.6c0.5,4,5,10.3-2.8,8.8
			c-17.5-3.5-0.4-27.3-20.1-15.2c-5.5,3.4-11.2,6.3-17.7,7.4c-5.2,0.9-10.4-0.1-15.1,2.3c0-7.9-0.3-15.9-0.5-23.8
			C38.7,54.7,40.9,40.5,38.4,37z"/>
		<g>
			<path fill="#321B15" d="M52.4,62.8c2.4-1.6,3.8-5.7,6.6-6.6c5-1.6,10.2,7.1,14.9,2c3.6-3.9,0.5-8.8,6.5-10
				c2.4-0.5,4.3,0.4,4.7-2.6c0.1-0.7-0.1-1.6-0.4-2.5c-14.1-2.1-37.1,6.6-46.4-6c2.5,3.4,0.4,17.7,0.5,21.8c0,0.6,0,1.2,0,1.8
				C43,63.7,48,65.6,52.4,62.8z"/>
		</g>
	</g>
	<g>
		<path fill="#CD3E27" d="M13.2,76.4c2.9,8.6,1.8,10,0,10.2l0,0C10.2,86.3,8,88.4,8,91.2v1.1c0,0,13,0.1,13.1,0
			c6.7-2.2,5.7-16.5,5.2-18.8c-2.2-9.5-8.8-9.7-18.9-8.1C9.3,69.9,12.1,73.1,13.2,76.4z"/>
	</g>
	<g>
		<path fill="#CD3E27" d="M43.2,76.4c-3,8.6-1.8,10,0,10.2l0,0c3.2-0.2,5.4,1.8,5.4,4.7v1.1c0,0-13.4,0.1-13.6,0
			c-7-2.2-6-16.5-5.4-18.8c2.3-9.5,9.1-9.7,19.6-8.1C47.3,69.9,44.3,73.1,43.2,76.4z"/>
	</g>
	<path fill="#DDA735" d="M27.9,46.9c-7.1,0-12.8,8.2-12.8,18.2c0,10.1,5.7,18.2,12.8,18.2c0,0,0.1,0,0.1,0L27.9,46.9
		C28,46.9,27.9,46.9,27.9,46.9z"/>
	<path fill="#F3C04D" d="M40.8,65.1c0-10-5.7-18.2-12.8-18.2v36.4C35,83.3,40.8,75.2,40.8,65.1z"/>
	<g>
		<path fill="#A52B22" d="M40.5,31.3c2.9,10.8,11.2,27.4,7.8,39.1c-1.6,5.4-7.1,6.9-10.9,2.7c-4-4.6-4-12.9-2.4-18.2
			c2-6.5,4.3-9.9,5.1-16.7L40.5,31.3z"/>
		<path fill="#F26A45" d="M15,31.3C12.1,42.1,3.8,58.8,7.2,70.4c1.6,5.4,7.1,6.9,10.9,2.7c4-4.6,3.6-13.4,2-18.7
			c-2-6.5-3.9-9.4-4.7-16.2L15,31.3z"/>
		<path fill="#E45B2E" d="M27.9,21.6c-9.6-0.1-13,8.1-14.2,13.7c-0.6,2.8,0.5,7.1,2.1,9.5c3.7,5.6,3.9,13.8,12.1,14.5
			c0.1,0,0.1,0,0.2,0V21.6C28.1,21.6,28,21.6,27.9,21.6z"/>
		<path fill="#CD3E27" d="M41.9,35.3c-1.5-5.5-5.1-13.5-13.7-13.7v36.7c8.7,0.7,8.4-8.1,11.9-13.6C41.6,42.4,42.6,38.1,41.9,35.3z"
			/>
		<g>
			<path fill="#A26A28" d="M31.7,57c0-1.7-1.6-3.1-3.6-3.2v6.3C30.1,60.1,31.7,58.7,31.7,57z"/>
			<path fill="#BC862C" d="M28,53.9c-2.1,0-3.8,1.4-3.8,3.2c0,1.7,1.7,3.2,3.8,3.2c0.1,0,0.1,0,0.2,0v-6.3
				C28.1,53.9,28,53.9,28,53.9z"/>
			<g>
				<g>
					<path fill="#F3C04D" d="M26.1,23.1c0,0.1,0.5,7.3,0.5,7.3c0,2.5-0.8,6.5-1.7,8.8c-1.9,4.6-4.2,10-5.3,12.1
						c-2.6,5,5,12.2,8.4,3.1c0.1,0.3,0.2,0.5,0.3,0.7V22C27.2,21.9,26,22.3,26.1,23.1z"/>
					<path fill="#DDA735" d="M36.2,51.3c-1.2-2.2-3.4-7.5-5.3-11.9c-1-2.3-1.8-6.3-1.8-8.8l0.5-7.5c0.1-0.7-0.6-1.1-1.4-1.1v33.2
						C31.6,63.1,38.8,56.2,36.2,51.3z"/>
				</g>
			</g>
			<g>
				<ellipse fill="#321B15" cx="32.4" cy="53.3" rx="0.4" ry="0.6"/>
				<ellipse fill="#321B15" cx="33.5" cy="55.4" rx="0.4" ry="0.6"/>
				<ellipse fill="#321B15" cx="34.5" cy="53.3" rx="0.4" ry="0.6"/>
			</g>
			<g>
				<ellipse fill="#321B15" cx="22" cy="53.3" rx="0.4" ry="0.6"/>
				<ellipse fill="#321B15" cx="23.2" cy="55.4" rx="0.4" ry="0.6"/>
				<ellipse fill="#321B15" cx="24.2" cy="53.3" rx="0.4" ry="0.6"/>
			</g>
		</g>
		<g>
			<path fill="#6E453D" d="M30.8,51.1c0,1.3-2.9,2.5-2.9,2.5s-3.3-1.2-3.3-2.5c0-1.3,1.4-2.4,3.1-2.4C29.4,48.7,30.8,49.8,30.8,51.1
				z"/>
			
				<ellipse transform="matrix(0.6782 0.7348 -0.7348 0.6782 47.2632 -4.6747)" fill="#321B15" cx="29" cy="51.6" rx="0.6" ry="0.9"/>
			
				<ellipse transform="matrix(-0.6773 0.7357 -0.7357 -0.6773 82.5446 67.0622)" fill="#321B15" cx="26.6" cy="51.6" rx="0.6" ry="0.9"/>
		</g>
		<g>
			<path fill="#321B15" d="M36.8,29.6c-0.8-1-2.3-2.2-3.6-1.5c-0.7,0.4-0.6,2.4-0.6,3.2c0.5-1.8,2-2,2.8-1.4
				c2.1,1.3,3.4,4.7,3.5,5.8C39,33.7,38.1,31,36.8,29.6z"/>
			<path fill="#A52B22" d="M36.8,30.4c-0.8-1-2.3-2.2-3.6-1.5c-0.7,0.4-0.6,2.4-0.6,3.2c0.5-1.8,2-2,2.8-1.4
				c2.1,1.3,3.4,4.7,3.5,5.8C39,34.5,38.1,31.9,36.8,30.4z"/>
			<path fill="#A52B22" d="M36.9,36.3C36.9,36.3,36.9,36.3,36.9,36.3c0,0-1.1-3.5-2.1-3.5c-0.7,0-1.5,0.8-1.8,1.3
				C34.6,33.8,35.7,35,36.9,36.3z"/>
			<g>
				<path fill="#321B15" d="M36.3,35.7c-0.8-0.9-1.6-1.5-2.6-1.6C33.3,36.2,35.3,38,36.3,35.7z"/>
				<path fill="#F0EBC2" d="M36.3,35.7c-1,2.3-3,0.6-2.6-1.6c-0.2,0-0.5,0-0.7,0.1c-0.2,0.2-0.3,0.3-0.3,0.3s1.1,3.1,2.1,3.1
					c0.9,0,1.9-1.1,2.1-1.4C36.7,36.1,36.5,35.9,36.3,35.7z"/>
			</g>
			<circle fill="#F0EBC2" cx="35.5" cy="35.4" r="0.3"/>
		</g>
		<g>
			<path fill="#321B15" d="M18.8,29.6c0.8-1,2.3-2.2,3.6-1.5c0.7,0.4,0.6,2.4,0.6,3.2c-0.5-1.8-2-2-2.8-1.4
				c-2.1,1.3-3.4,4.7-3.5,5.8C16.6,33.7,17.5,31,18.8,29.6z"/>
			<path fill="#A52B22" d="M18.8,30.4c0.8-1,2.3-2.2,3.6-1.5c0.7,0.4,0.6,2.4,0.6,3.2c-0.5-1.8-2-2-2.8-1.4
				c-2.1,1.3-3.4,4.7-3.5,5.8C16.6,34.5,17.5,31.9,18.8,30.4z"/>
			<path fill="#A52B22" d="M18.7,36.3C18.7,36.3,18.7,36.3,18.7,36.3c0,0,1.1-3.5,2.1-3.5c0.7,0,1.5,0.8,1.8,1.3
				C21,33.8,19.9,35,18.7,36.3z"/>
			<g>
				<path fill="#321B15" d="M19.3,35.7c0.8-0.9,1.6-1.5,2.6-1.6C22.3,36.2,20.3,38,19.3,35.7z"/>
				<path fill="#F0EBC2" d="M19.3,35.7c1,2.3,3,0.6,2.6-1.6c0.2,0,0.5,0,0.7,0.1c0.2,0.2,0.3,0.3,0.3,0.3s-1.1,3.1-2.1,3.1
					c-0.9,0-1.9-1.1-2.1-1.4C18.9,36.1,19.1,35.9,19.3,35.7z"/>
			</g>
			<circle fill="#F0EBC2" cx="20.1" cy="35.4" r="0.4"/>
		</g>
	</g>
	<path fill="#CD3E27" d="M87.5,45.2c9,0.6,3.5-15.3,1-19.5c7.9,4,15.1,23.2,3.2,24.7L87.5,45.2z"/>
</g>
<radialGradient id="SVGID_3_" cx="563.3921" cy="6169.0244" r="33.0701" gradientTransform="matrix(1.2677 0 0 0.1339 -638.7378 -738.6193)" gradientUnits="userSpaceOnUse">
	<stop  offset="0" style="stop-color:#CDBDA2"/>
	<stop  offset="0.163" style="stop-color:#D2C4AC"/>
	<stop  offset="0.7048" style="stop-color:#E3DACA"/>
	<stop  offset="1" style="stop-color:#EAE3D6"/>
</radialGradient>
<ellipse fill="url(#SVGID_3_)" cx="75.5" cy="87.4" rx="41.9" ry="4.4"/>
</svg>
