<?xml version="1.0" encoding="utf-8"?>
<!-- Generator: Adobe Illustrator 18.1.0, SVG Export Plug-In . SVG Version: 6.00 Build 0)  -->
<svg version="1.1" id="Layer_1" xmlns="http://www.w3.org/2000/svg" xmlns:xlink="http://www.w3.org/1999/xlink" x="0px" y="0px"
	 viewBox="0 0 100 100" enable-background="new 0 0 100 100" xml:space="preserve">
<rect fill="#EAE3D6" width="100" height="100"/>
<radialGradient id="SVGID_1_" cx="543.3527" cy="6203.2192" r="33.0701" gradientTransform="matrix(1.2677 0 0 0.1339 -638.7378 -738.6193)" gradientUnits="userSpaceOnUse">
	<stop  offset="0" style="stop-color:#CDBDA2"/>
	<stop  offset="0.163" style="stop-color:#D2C4AC"/>
	<stop  offset="0.7048" style="stop-color:#E3DACA"/>
	<stop  offset="1" style="stop-color:#EAE3D6"/>
</radialGradient>
<ellipse fill="url(#SVGID_1_)" cx="50.1" cy="92" rx="41.9" ry="4.4"/>
<radialGradient id="SVGID_2_" cx="533.1749" cy="6179.6606" r="33.0701" gradientTransform="matrix(1.2677 0 0 0.1339 -638.7378 -738.6193)" gradientUnits="userSpaceOnUse">
	<stop  offset="0" style="stop-color:#CDBDA2"/>
	<stop  offset="0.163" style="stop-color:#D2C4AC"/>
	<stop  offset="0.7048" style="stop-color:#E3DACA"/>
	<stop  offset="1" style="stop-color:#EAE3D6"/>
</radialGradient>
<ellipse fill="url(#SVGID_2_)" cx="37.2" cy="88.8" rx="41.9" ry="4.4"/>
<radialGradient id="SVGID_3_" cx="572.858" cy="6169.1973" r="33.0701" gradientTransform="matrix(1.2677 0 0 0.1339 -638.7378 -738.6193)" gradientUnits="userSpaceOnUse">
	<stop  offset="0" style="stop-color:#CDBDA2"/>
	<stop  offset="0.163" style="stop-color:#D2C4AC"/>
	<stop  offset="0.7048" style="stop-color:#E3DACA"/>
	<stop  offset="1" style="stop-color:#EAE3D6"/>
</radialGradient>
<ellipse fill="url(#SVGID_3_)" cx="87.5" cy="87.4" rx="41.9" ry="4.4"/>
<g>
	<path fill="#6D9E8F" d="M71.4,45.4c3.4,1.3,6.4-1.3,7.7-4.3c1.7,3.7-0.4,8.6-4.3,9.9L71.4,45.4z"/>
	<g>
		<path fill="#6D9E8F" d="M47.8,82.4c0.2-0.3,0.4-0.7,0.6-1.3c1.5-3.5,1-9.3,0.2-12.4c-0.7-3.1,5.2-17.8,5.2-17.8l8.3,13.4l-6.3,8.1
			c0,0,1.1,9.3-2,13.3C53.1,86.6,51.2,87,50,87l-6.5,0c0-0.2-0.1-0.5-0.1-0.7C43.4,84.1,45.4,82.4,47.8,82.4z"/>
	</g>
	<g>
		<path fill="#9ABFB4" d="M81.1,81.1c-1.5-3.5,0.1-9.3,0.8-12.4c0.6-2.4-3-14.9-5-18.9c-2.8-5.4-8.7-9.4-14.7-11.5
			c-7.3-2.6-23.4-4.2-31.5,4.2c0,0-6.9,12-1,20c-0.7,2.3-1.2,7.1,2.9,14.4c4.1,7.5,1.2,8.7-0.3,8.8l0,0c-2.7-0.2-4.6,1.7-4.6,4.4
			v1.1h12.8c0,0,4.4-5.1-0.3-15.1c-1.1-2.6-1.3-4.7-1.1-6.5c4.1,1.9,8.7,3,13.2,2.9c-0.2,1.1-0.5,2.3-1,3.6
			c-4.8,10-0.3,15.1-0.3,15.1h12.8v-1.1c0-2.7-1.9-4.6-4.6-4.4l0,0c-1.5-0.2-4.4-1.4-0.3-8.8c1.2-2.2,2-4.2,2.6-6
			c2.9-1.1,6-2.6,8.6-4.6l4.7,6c0,0-2.2,9.3,0.9,13.3c0.7,0.9,2.6,1.4,3.8,1.4l6.5,0c0-0.2,0.1-0.5,0.1-0.7c0-2.1-1.9-3.9-4.4-3.9
			C81.5,82,81.3,81.6,81.1,81.1z"/>
	</g>
	<g>
		<path fill="#87A99F" d="M59.1,37.3c-8.1-2-21.4-2.3-28.5,5.1c0,0-6.9,12-1,20c-0.4,1.2-0.7,3.2-0.3,5.9
			C42.7,61.3,55.8,52,59.1,37.3z"/>
	</g>
	<g>
		<g>
			<path fill="#6E453D" d="M34.4,14.3c-1-2.2-2.1-4.5-3-6.7c-1.2-2.9-3.3-3.2-4.9-0.4c-4.7,8.2-9.7,19.2-3.3,23.5
				c2.5,1.7,6.4-0.5,8.2-3.2l1.9-3C35,21.8,35.7,17.2,34.4,14.3z"/>
		</g>
		<g>
			<path fill="#321B15" d="M57.2,19.7c1.9-1.5,4-3,5.9-4.5c2.4-2,4.4-1.3,4.5,1.9c0.3,9.4-0.5,21.4-8.2,22.3c-3,0.3-5.4-3.4-5.7-6.6
				l-0.3-3.5C53.2,26.1,54.8,21.6,57.2,19.7z"/>
		</g>
		<path fill="#6E453D" d="M31.8,49.7c0.1-0.2,0.3-0.4,0.7-0.3c0.4,0.1,0.8,0.2,1.1,0.3c0.3,0.1,0.5,0.1,0.8,0.2c0,0,0.1,0,0.1,0
			c0.9,0.2,1.9,0.4,2.8,0.6L45.5,18c0,0-0.1,0-0.1,0c-9-2.3-18.2,3.7-20.6,13.2c-1.9,7.4,0.9,14.9,6.4,18.9
			C31.3,49.9,31.5,49.7,31.8,49.7z"/>
		<path fill="#321B15" d="M39.2,53c-0.7,0-1.3-0.1-2-0.2c0.8,0.2,1.6,0.3,2.5,0.3c0,0,0,0,0,0C39.5,53,39.3,53,39.2,53z"/>
		<path fill="#321B15" d="M45.5,18l-8.1,32.4c1.4,0.4,2.8,0.8,4.1,1.5c0.3,0,0.5,0.1,0.8,0.1c0.4,0,0.8,0.1,1.3,0.2
			c0.1,0,0.2,0.1,0.3,0.2c0.2,0,0.3,0.1,0.5,0.2c6.1-1.5,11.2-6.4,13-13.3C59.6,29.9,54.4,20.4,45.5,18z"/>
		<g>
			<g>
				<path fill="#9ABFB4" d="M32.9,45.9c-0.9,3.7,0.6,7.4,3.5,8.2l3.5-13.8C36.9,39.8,33.8,42.2,32.9,45.9z"/>
				<path fill="#6D9E8F" d="M40.1,40.4c-0.1,0-0.1,0-0.2,0l-3.5,13.8c0.1,0,0.1,0,0.2,0.1c3,0.8,6.2-1.7,7.2-5.5
					C44.8,44.9,43.1,41.2,40.1,40.4z"/>
			</g>
			<g>
				<path fill="#321B15" d="M39.8,41.6c-0.2,0.2-0.3,0.3-0.5,0.4c-1.4,1.3-2.8,2.5-3.7,5.5c0,0.1,0,0.1-0.1,0.2c0,0,0.1,0.1,0.1,0.1
					c0.9-1.6,3.4-4.1,3.6-4.3c0.5,1.4,1,3.2,1.1,5c0.1,0,0.1,0,0.2,0.1C41.3,45.4,40.4,43.6,39.8,41.6z"/>
			</g>
			<path fill="#C0DDD6" d="M45.4,18c-1.6-0.4-3.3-0.5-4.9-0.4c-0.3,0.4-0.5,0.8-0.5,1.3l-1.5,10.6c-0.2,1.5-1.5,3.2-2.8,4
				c-1.6,1.1-3.5,2.7-4,4.9c-0.4,1.6-0.7,3-1.9,4.2c-1,0.9-2.6,1.1-3.4,2.3c-1.8,3.2,2.5,6.1,5.3,5.6c2.7-0.4,4.4-2.6,5.1-5
				c0.5-1.8,1.6-2.6,2.6-3.3L45.5,18C45.5,18,45.4,18,45.4,18z"/>
			<path fill="#9ABFB4" d="M50.1,50.8c-0.1-1.4-1.4-2.4-1.8-3.6c-0.5-1.6-0.1-3,0.3-4.6c0.5-2.1-0.4-4.5-1.3-6.2
				c-0.7-1.3-1.1-3.4-0.5-4.9l3.7-10c0.1-0.3,0.2-0.7,0.2-1.1c-1.5-1.1-3.2-1.9-5.1-2.4l-6.1,24.1c0.1-0.1,0.2-0.2,0.3-0.3
				c0.5,1.3,1.3,2.5,0.9,4.6c-0.5,2.5-0.1,5.2,2.1,6.8C45.1,55,50.3,54.5,50.1,50.8z"/>
		</g>
		<g>
			<g>
				<path fill="#321B15" d="M43.9,36.8c-0.3,1.4-3.3,2-3.3,2s-2.7-2-2.3-3.4c0.3-1.4,1.9-2.2,3.4-1.8C43.2,34,44.2,35.4,43.9,36.8z"
					/>
				
					<ellipse transform="matrix(0.7969 0.604 -0.604 0.7969 29.8637 -18.4532)" fill="#F0EBC2" cx="42.4" cy="35.2" rx="0.8" ry="0.5"/>
			</g>
			
				<rect x="39.9" y="37.4" transform="matrix(0.9699 0.2435 -0.2435 0.9699 10.9402 -8.6001)" fill="#321B15" width="0.7" height="5.2"/>
		</g>
		<g>
			
				<ellipse transform="matrix(0.9698 0.2438 -0.2438 0.9698 9.7705 -11.5245)" fill="#F0EBC2" cx="51.4" cy="33.7" rx="1.7" ry="2.3"/>
			
				<ellipse transform="matrix(0.9698 0.2437 -0.2437 0.9698 9.7395 -11.7569)" fill="#321B15" cx="52.4" cy="33.5" rx="1.3" ry="1.6"/>
			
				<ellipse transform="matrix(0.9698 0.2439 -0.2439 0.9698 9.9377 -11.5286)" fill="#F0EBC2" cx="51.5" cy="34.4" rx="0.6" ry="0.7"/>
		</g>
		<g>
			<ellipse transform="matrix(0.9698 0.2437 -0.2437 0.9698 8.0439 -7.0698)" fill="#F0EBC2" cx="32.6" cy="29" rx="1.7" ry="2.3"/>
			
				<ellipse transform="matrix(0.9697 0.2443 -0.2443 0.9697 8.0357 -7.3191)" fill="#6E453D" cx="33.5" cy="28.7" rx="1.3" ry="1.6"/>
			<ellipse transform="matrix(0.9698 0.244 -0.244 0.9698 8.2164 -7.0758)" fill="#F0EBC2" cx="32.7" cy="29.6" rx="0.6" ry="0.7"/>
		</g>
		<g>
			<circle fill="#6E453D" cx="45.2" cy="46.1" r="0.4"/>
			<circle fill="#6E453D" cx="46.3" cy="48.4" r="0.4"/>
			<circle fill="#6E453D" cx="44.3" cy="48.3" r="0.4"/>
		</g>
		<g>
			<circle fill="#6E453D" cx="33.4" cy="43.2" r="0.4"/>
			<circle fill="#6E453D" cx="31.3" cy="44.6" r="0.4"/>
			<circle fill="#6E453D" cx="33.2" cy="45.5" r="0.4"/>
		</g>
	</g>
</g>
</svg>
