<?xml version="1.0" encoding="utf-8"?>
<!-- Generator: Adobe Illustrator 18.1.0, SVG Export Plug-In . SVG Version: 6.00 Build 0)  -->
<svg version="1.1" id="Layer_1" xmlns="http://www.w3.org/2000/svg" xmlns:xlink="http://www.w3.org/1999/xlink" x="0px" y="0px"
	 viewBox="0 0 100 100" enable-background="new 0 0 100 100" xml:space="preserve">
<rect fill="#EAE3D6" width="100" height="100"/>
<g>
	<g>
		<path fill="#528273" d="M37.6,79.3c2.1,5.7-0.5,7.2-1.8,8c-0.6,0.4-3.1,0.2-3.2,4.2l0,0.5L42.9,92c0,0,6.7-1.5,2.7-12.9
			c-1.1-3.3-4.2-13.2-4.3-14.3l-11.1-6.5C30.7,59.7,36.6,76.5,37.6,79.3z"/>
	</g>
	<g>
		<path fill="#528273" d="M55.7,72.7c-5.3-1-10.7-2.2-15.7-4c-1.8-0.6-4.4-1.4-6.7-2.5c4.1,5.1,9.5,7,17.8,10.8
			c8.3,3.8,33,11.3,37.6,1.5c-1.7-1.2-3.7-1.9-6.4-2.4C73.5,74.5,64.5,74.4,55.7,72.7z"/>
		<path fill="#71A091" d="M51.8,29c-4.2-15.4-24.9-0.1-24.9,0c-3.8,2.9-0.3,23.3,2.1,29.3c1.3,3.4,2.8,6,4.4,8
			c2.3,1.1,4.9,1.9,6.7,2.5c5,1.7,10.5,3,15.7,4c8.8,1.6,17.8,1.8,26.6,3.4c2.7,0.5,4.7,1.3,6.4,2.4c0.4-0.8,0.6-1.7,0.7-2.8
			C92.2,41.5,60.8,62.2,51.8,29z"/>
	</g>
	<g>
		<g>
			<path fill="#6D9E8F" d="M37.2,35.4c-0.3,0.3-0.7,0.7-1.1,1.1l1.4,0.3l0.5-2.1C37.8,34.8,37.5,35,37.2,35.4z"/>
			<path fill="#6D9E8F" d="M38.8,35.7c-0.2-0.7-0.4-1-0.6-1.2c-0.1,0-0.1,0.1-0.2,0.1l-0.5,2.1l1.8,0.4
				C39.1,36.6,38.9,36.1,38.8,35.7z"/>
			<path fill="#71A091" d="M58.2,21.6l-4.6-8.1c-0.6-1.8-2.7-3.6-4.6-4l-5-1.1l-2.3,10.3c0,0,0,0,0,0c6.3,1.3,10.6,7,10.6,13.4
				l4.7-4.9C58.2,25.9,58.8,23.4,58.2,21.6z"/>
			<path fill="#9ABFB4" d="M36.6,7c-1.9-0.4-4.6,0.4-5.9,1.8L23,14.2c-1.3,1.4-1.9,3.9-1.3,5.7L25.2,30c0-0.1,0.1-0.3,0.1-0.4
				c1.7-7.5,9-12.3,16.3-10.7l2.3-10.3L36.6,7z"/>
			<path fill="#6E453D" d="M25.2,29.6c0,0.1-0.1,0.3-0.1,0.4l0.4,1.2c0-0.5,0.1-1,0.2-1.5c1.6-7.2,8.6-11.8,15.7-10.3l0.1-0.5
				C34.3,17.3,26.9,22.1,25.2,29.6z"/>
			<path fill="#321B15" d="M41.6,18.8C41.6,18.8,41.6,18.8,41.6,18.8l-0.2,0.5c0,0,0,0,0,0c6.3,1.3,10.4,7.1,10.1,13.4l0.6-0.6
				C52.2,25.9,47.9,20.2,41.6,18.8z"/>
			<path fill="#6E453D" d="M36.8,35c-0.3,0.4-0.8,0.8-1.4,1.3l0.7,0.1c0.5-0.4,0.9-0.8,1.1-1.1c0.3-0.4,0.6-0.6,0.8-0.7l0.2-0.7
				C37.9,34.1,37.4,34.3,36.8,35z"/>
			<path fill="#6E453D" d="M39.3,35.5c-0.4-1.2-0.9-1.6-1-1.6c0,0-0.1,0-0.2,0L38,34.7c0.1-0.1,0.2-0.1,0.2-0.1
				c0.1,0.2,0.4,0.5,0.6,1.2c0.1,0.4,0.3,0.9,0.6,1.5l0.7,0.1C39.7,36.6,39.5,36,39.3,35.5z"/>
			<path fill="#6D9E8F" d="M25.8,29.7c-0.1,0.5-0.2,1-0.2,1.5l0,0.1c0.6,1.8,2.7,3.6,4.6,4l5.2,1.1c0.6-0.5,1.1-1,1.4-1.3
				c0.6-0.7,1.1-1,1.4-1.1l3.3-14.6C34.4,17.9,27.4,22.5,25.8,29.7z"/>
			<path fill="#528273" d="M41.5,19.4C41.5,19.4,41.5,19.4,41.5,19.4L38.1,34c0.1,0,0.2,0,0.2,0c0.1,0,0.6,0.4,1,1.6
				c0.1,0.5,0.4,1.1,0.7,1.8l2.5,0.5c1.9,0.4,4.6-0.4,5.9-1.7l3.2-3.3C51.9,26.5,47.8,20.7,41.5,19.4z"/>
		</g>
		<g>
			<path fill="#6E453D" d="M36.7,17.4c-0.1,0.5-0.3,1-0.5,1.3c-0.1,0.1-0.1,0.2,0,0.3c0.2-0.1,0.5-0.1,0.7-0.1
				c0.2-0.4,0.4-0.9,0.5-1.4c0.2-1,0.3-2.1,0.1-2.8c-0.3-1.9-1.8-2.9-3.4-3.2c-1.7-0.4-3.6-0.1-5.1,0.3c-0.2,0.1-0.3,0.3-0.2,0.4
				c0.1,0.2,0.3,0.3,0.4,0.2l0,0c1.3-0.4,3.2-0.6,4.7-0.3c1.5,0.3,2.6,1.1,2.9,2.7C36.9,15.5,36.9,16.5,36.7,17.4z"/>
		</g>
		<g>
			<path fill="#6E453D" d="M43.4,9.8C43.2,9.7,43,9.9,43,10l-2,8.8c0,0.2,0.1,0.4,0.3,0.4c0.1,0,0.2,0,0.3,0l2.1-9.2
				C43.5,9.9,43.5,9.8,43.4,9.8z"/>
			<path fill="#6E453D" d="M43.6,9.9l-2.1,9.2c0.1,0,0.1-0.1,0.2-0.2l2-8.8C43.7,10.1,43.6,10,43.6,9.9z"/>
		</g>
		<g>
			<path fill="#6E453D" d="M38.7,15.4c-0.3,1.2-1,2.3-2.2,3.3c-0.1,0.1-0.1,0.2-0.1,0.2c0.3-0.1,0.7-0.1,1-0.1c1.1-1,1.8-2.2,2-3.3
				c0.3-1.5,0-3.1-0.8-4.3C37.7,10,36.3,9,34.5,8.6c-0.2,0-0.4-0.1-0.6-0.1c-0.2,0-0.4,0.1-0.4,0.3c0,0.2,0.1,0.4,0.3,0.4
				c0.2,0,0.3,0.1,0.5,0.1C37.6,10,39.3,12.7,38.7,15.4z"/>
		</g>
		<g>
			<path fill="#321B15" d="M55.2,17.4c-1.1-1-2.8-2-4.5-2.3c-1.6-0.4-3.4-0.1-4.5,1.5c-0.4,0.6-0.9,1.6-1.1,2.6
				C45,19.5,45,19.9,45,20.3c0.3,0.2,0.5,0.4,0.7,0.6c0-0.1,0-0.1,0-0.2c-0.1-0.3,0-0.9,0.1-1.4c0.2-0.9,0.6-1.8,1-2.4
				c0.9-1.3,2.3-1.6,3.8-1.3c1.5,0.3,3.1,1.3,4.1,2.2c0.1,0.1,0.4,0.1,0.5,0C55.3,17.7,55.3,17.5,55.2,17.4z"/>
		</g>
		<g>
			<path fill="#321B15" d="M52.1,12.4c-0.2-0.1-0.4-0.1-0.6-0.1c-1.8-0.4-3.5-0.1-4.8,0.7c-1.3,0.8-2.3,2.1-2.6,3.6
				c-0.2,1.1-0.2,2.2,0.3,3.5c0.1,0,0.2,0,0.3,0c0.3,0.2,0.5,0.4,0.8,0.6c0,0,0,0,0,0v0c-0.7-1.4-0.9-2.8-0.6-3.9
				c0.6-2.7,3.3-4.5,6.6-3.8c0.2,0,0.3,0.1,0.5,0.1c0.2,0.1,0.4,0,0.4-0.2C52.4,12.6,52.3,12.4,52.1,12.4z"/>
		</g>
		<path fill="#6E453D" d="M34.1,31.6c-1.5,1.1-2.3,2.6-1.2,4.2c0.8,1.2,2.6,1.8,4.4,2.1l1.7-7.7C37.3,30.1,35.4,30.7,34.1,31.6z"/>
		<path fill="#321B15" d="M42.5,32.2c-0.8-1.3-2.1-1.9-3.5-2l-1.7,7.7c1,0.2,2,0.3,2.7,0.3C44,38.4,44.5,35.4,42.5,32.2z"/>
		<path fill="#6D9E8F" d="M38.1,30.1c-2.9,0.3-7,1.5-7.9,4.5C30.2,34.9,30,35,29.7,35c0,0.2,0,0.4,0,0.5c0.1,0,0.2,0.1,0.4,0.1
			c1.7,0.4,3.7-0.9,5.1-2.2c1.1-1.1,2.3-1.6,3.4-1.5l0.4-1.9C38.7,30.1,38.4,30.1,38.1,30.1z"/>
		<path fill="#6D9E8F" d="M43.1,32.5c-1.1-1.1-2.5-2.3-4.1-2.5L38.6,32c0.1,0,0.1,0,0.2,0c1.1,0.2,2.1,1.2,2.6,2.7
			c0.6,1.6,1.8,3.4,3.3,3.9c0.6-0.9,1.1-1.8,1.5-2.8C45.4,34.7,44.1,33.5,43.1,32.5z"/>
		<path fill="#6E453D" d="M28.4,30.3c-0.1,0.6-0.2,1.2-0.2,1.8c0,1.1,0.2,2,0.6,2.8c1.2,2.2,4,0.5,5.9-1.5c1.3-1.4,2.7-2.1,4-2
			l2.1-9.4C35.3,20.8,29.8,24.5,28.4,30.3z"/>
		<path fill="#321B15" d="M40.9,21.9C40.9,21.9,40.9,21.9,40.9,21.9l-2.2,9.4c0.1,0,0.1,0,0.2,0c1.4,0.3,2.4,1.6,3,3.4
			c0.8,2.6,2.6,5.2,4.5,3.6c0.7-0.5,1.2-1.2,1.6-2.2c0.2-0.5,0.4-1.1,0.6-1.7C49.9,28.8,46.5,23.1,40.9,21.9z"/>
		<g>
			<path fill="#6D9E8F" d="M43.7,23.3c-0.3-0.8-1.8-1.8-2.6-2c0,0,0,0,0,0l-0.9,3.9l0.1,0l0.2-0.1l0.2,0c0.3-0.1,0.4-0.1,0.5-0.1
				l0.1-0.1c0.2,0.2,0.4,0.4,0.7,0.4l0.1,0c0,0,0,0,0,0c0.6,0.1,1.1,0,1.5-0.4C43.8,24.5,43.9,23.9,43.7,23.3z"/>
			<path fill="#6D9E8F" d="M37.8,22c-0.5,0.5-0.7,1.1-0.5,1.7c0.2,0.5,0.6,0.9,1.2,1l0.1,0c0.3,0.1,0.6,0,0.9-0.1l0.1,0.1
				c0,0.1,0.1,0.1,0.4,0.3l0.1,0.1l0.1,0.1l0.9-3.9C40.2,21.2,38.5,21.4,37.8,22z"/>
			<path fill="#6E453D" d="M38.1,22.3c-0.8,0.8-0.5,1.9,0.5,2c0.8,0.1,1.7-0.7,0.5-1.1h0c0,0,0,0,0,0l0,0c0.9-0.5,1,0.3,0.7,1.2
				c0,0.1,0.3,0.3,0.4,0.4l0.7-3.2C40.2,21.5,38.6,21.8,38.1,22.3z"/>
			<path fill="#6E453D" d="M43.3,23.4c-0.3-0.7-1.7-1.6-2.4-1.7c0,0,0,0,0,0l-0.7,3.2c0,0,0,0,0,0l0,0l0,0l0,0l0,0
				c0.2,0,0.5-0.1,0.6-0.2c0.1-0.9,0.5-1.6,1.1-0.8h0c0,0,0,0,0,0l0,0c-1.2-0.2-0.8,1,0,1.2C43,25.3,43.7,24.4,43.3,23.4z"/>
		</g>
		<rect x="36" y="28.2" transform="matrix(0.2211 -0.9753 0.9753 0.2211 3.071 60.4321)" fill="#6D9E8F" width="6.7" height="0.1"/>
		<polygon fill="#6D9E8F" points="40.5,25.1 40.2,25 38.7,31.6 39,31.7 		"/>
		<path fill="#528273" d="M29.6,21.9c-2.1-0.5-3.5-2.5-3-4.6c0.5-2.1,3.6-3.4,5.8-3c1.3,0.3,2.7,1.3,2,4.6
			C33.8,21.1,31.7,22.4,29.6,21.9L29.6,21.9z"/>
		<path fill="#321B15" d="M28.5,16.3c-0.3,0.3-0.5,0.6-0.6,0.9c-0.3,1.4,0.6,2.8,2.1,3.1c1.5,0.3,2.9-0.6,3.2-2
			c0.1-0.4,0.2-0.8,0.2-1.2C31.7,16.8,30.1,16.4,28.5,16.3z"/>
		<path fill="#6D9E8F" d="M32,15.2c-1.1-0.2-2.7,0.2-3.6,1.1c1.6,0.2,3.3,0.5,4.9,0.8C33.3,16.2,33,15.4,32,15.2z"/>
		<path fill="#E0DEC8" d="M30.4,16.9c-0.1,0.3-0.4,0.5-0.7,0.4c-0.3-0.1-0.5-0.4-0.4-0.6c0.1-0.3,0.4-0.5,0.7-0.4
			C30.3,16.3,30.5,16.6,30.4,16.9z"/>
		<path fill="#6D9E8F" d="M50.1,26.3c2.1,0.5,4.3-0.9,4.7-2.9c0.5-2.1-1.8-4.6-4-5c-1.3-0.3-3,0.1-3.8,3.4
			C46.6,23.8,48,25.8,50.1,26.3L50.1,26.3z"/>
		<path fill="#321B15" d="M53.5,21.6c0.1,0.4,0.2,0.7,0.1,1.1c-0.3,1.4-1.8,2.3-3.2,2c-1.5-0.3-2.4-1.7-2.1-3.1
			c0.1-0.4,0.2-0.8,0.4-1.2C50.4,20.7,52,21.1,53.5,21.6z"/>
		<path fill="#528273" d="M50.8,19.2c1.1,0.2,2.3,1.3,2.8,2.4c-1.6-0.5-3.2-0.9-4.8-1.2C49.1,19.5,49.8,18.9,50.8,19.2z"/>
		<path fill="#E0DEC8" d="M49.7,20.9c-0.1,0.3,0.1,0.6,0.4,0.6c0.3,0.1,0.6-0.1,0.7-0.4c0.1-0.3-0.1-0.6-0.4-0.6
			C50,20.5,49.8,20.7,49.7,20.9z"/>
		<path fill="#71A091" d="M25.7,18.6c-1.1,2-1.2,4.4,0.2,6.4c0.7-1,1.3-2.2,2.3-2.9C27,21.5,25.6,20.1,25.7,18.6z"/>
		<path fill="#528273" d="M55.5,24.9c0.1,2.3-0.8,4.5-3,5.8c-0.2-1.2-0.2-2.5-0.9-3.5C53.1,27,55,26.3,55.5,24.9z"/>
		<path fill="#321B15" d="M58,31.7c-4,2.6-6.1,2.6-5.1-2.1c0.9-4.5,2.9-9.4,1.6-14.1c2.4,1.7,5.7,4.8,7.2,7.9
			C63.5,27.2,61.5,29.4,58,31.7z"/>
		<path fill="#6E453D" d="M18.7,23.4c2.5,4,4.4,4.8,5.5,0.1c1.1-4.5,1.4-9.8,4.7-13.5C26,10.5,21.7,12,19,14.2
			C15.7,17,16.5,19.9,18.7,23.4z"/>
	</g>
	<g>
		<path fill="#71A091" d="M53,79.7c2.1,5.7-0.5,7.2-1.8,8c-0.6,0.4-3.1,0.2-3.2,4.2l0,0.5l11.3,0.1c0,0,4.3-2.8,2.2-13.2
			c-1-4.7-2.9-12.9-3-14l-10.4-0.1C48.6,66.6,52,77,53,79.7z"/>
	</g>
	<path fill="#71A091" d="M92.2,59.2c-0.1,3.7-2,10.6-3.9,10.6c-1.9-0.1-3.2-7.1-3-10.8c0.1-3.7,2.2-6.2,4.1-6.1
		C91.3,52.9,92.3,55.5,92.2,59.2z"/>
	<path fill="#71A091" d="M89.4,67.5c-2.6-1.9-3.8,2.4-7,1c-3-1.3-6.5-1.4-9.5,0.1c-5.7,2.9-7,9.8-2.6,14.4c2,2.1,4.7,3.6,7.5,4.6
		c-5.2-1.8-10.3-0.2-11.3,4.9l22,0.1C91.6,90.5,90.5,71,89.4,67.5z"/>
</g>
<radialGradient id="SVGID_1_" cx="543.3527" cy="6203.2192" r="33.0701" gradientTransform="matrix(1.2677 0 0 0.1339 -638.7378 -738.6193)" gradientUnits="userSpaceOnUse">
	<stop  offset="0" style="stop-color:#CDBDA2"/>
	<stop  offset="0.163" style="stop-color:#D2C4AC"/>
	<stop  offset="0.7048" style="stop-color:#E3DACA"/>
	<stop  offset="1" style="stop-color:#EAE3D6"/>
</radialGradient>
<ellipse fill="url(#SVGID_1_)" cx="50.1" cy="92" rx="41.9" ry="4.4"/>
<radialGradient id="SVGID_2_" cx="547.2969" cy="6203.2192" r="33.0701" gradientTransform="matrix(1.2677 0 0 0.1339 -638.7378 -738.6193)" gradientUnits="userSpaceOnUse">
	<stop  offset="0" style="stop-color:#CDBDA2"/>
	<stop  offset="0.163" style="stop-color:#D2C4AC"/>
	<stop  offset="0.7048" style="stop-color:#E3DACA"/>
	<stop  offset="1" style="stop-color:#EAE3D6"/>
</radialGradient>
<ellipse fill="url(#SVGID_2_)" cx="55.1" cy="92" rx="41.9" ry="4.4"/>
</svg>
