<?xml version="1.0" encoding="utf-8"?>
<!-- Generator: Adobe Illustrator 18.1.0, SVG Export Plug-In . SVG Version: 6.00 Build 0)  -->
<svg version="1.1" id="Layer_1" xmlns="http://www.w3.org/2000/svg" xmlns:xlink="http://www.w3.org/1999/xlink" x="0px" y="0px"
	 viewBox="0 0 100 100" enable-background="new 0 0 100 100" xml:space="preserve">
<rect fill="#EAE3D6" width="100" height="100"/>
<radialGradient id="SVGID_1_" cx="543.3527" cy="6203.2192" r="33.0701" gradientTransform="matrix(1.2677 0 0 0.1339 -638.7378 -738.6193)" gradientUnits="userSpaceOnUse">
	<stop  offset="0" style="stop-color:#CDBDA2"/>
	<stop  offset="0.163" style="stop-color:#D2C4AC"/>
	<stop  offset="0.7048" style="stop-color:#E3DACA"/>
	<stop  offset="1" style="stop-color:#EAE3D6"/>
</radialGradient>
<ellipse fill="url(#SVGID_1_)" cx="50.1" cy="92" rx="41.9" ry="4.4"/>
<radialGradient id="SVGID_2_" cx="533.1749" cy="6202.0654" r="33.0701" gradientTransform="matrix(1.2677 0 0 0.1339 -638.7378 -738.6193)" gradientUnits="userSpaceOnUse">
	<stop  offset="0" style="stop-color:#CDBDA2"/>
	<stop  offset="0.163" style="stop-color:#D2C4AC"/>
	<stop  offset="0.7048" style="stop-color:#E3DACA"/>
	<stop  offset="1" style="stop-color:#EAE3D6"/>
</radialGradient>
<ellipse fill="url(#SVGID_2_)" cx="37.2" cy="91.8" rx="41.9" ry="4.4"/>
<radialGradient id="SVGID_3_" cx="572.858" cy="6191.6021" r="33.0701" gradientTransform="matrix(1.2677 0 0 0.1339 -638.7378 -738.6193)" gradientUnits="userSpaceOnUse">
	<stop  offset="0" style="stop-color:#CDBDA2"/>
	<stop  offset="0.163" style="stop-color:#D2C4AC"/>
	<stop  offset="0.7048" style="stop-color:#E3DACA"/>
	<stop  offset="1" style="stop-color:#EAE3D6"/>
</radialGradient>
<ellipse fill="url(#SVGID_3_)" cx="87.5" cy="90.4" rx="41.9" ry="4.4"/>
<g>
	<g>
		<g>
			<path fill="#321B15" d="M37.8,25.3c0.7-1,1.5-2,2.2-3.1c0.9-1.3,1.9-1.2,2.4,0.4c1.3,4.8,2.3,11.1-1.2,12.5
				c-1.4,0.6-3-1.1-3.5-2.7l-0.6-1.8C36.6,29.1,36.8,26.6,37.8,25.3z"/>
		</g>
		<g>
			<path fill="#321B15" d="M41.2,32.3c0.2-2.1-2.6-4.4-2.6-4.4s-3.4-0.4-5.5-0.1c-0.9,0.1-2.4-0.1-3.9-0.3c-0.2-2.9-3.9-4.7-6.4-5.1
				c1.4,0.5,3.1,0.9,3.8,2.3c-1.6-1.6-4.4-2.1-6.5-2c1.3,0.1,2.6,0.6,3.6,1.4c-1.6-0.6-4.2-1.1-5.6,0c1,0,1.9,0,2.9,0.2
				c-1.3-0.1-2.9,0.2-4,1c1-0.2,2-0.3,2.9-0.1c-1.1,0-2.6,0.4-3.5,1.3c1.4-0.6,3.1-0.7,4.6-0.5c-1.6,0-3.3,0.7-4.5,1.7
				c1.8-0.6,3.6-0.9,5.4-0.6c-1.6,0.1-3.1,0.6-4.5,1.5c1.6-0.1,3.2,0.1,4.4,1.1c-1.1,0.9-3.1,1.7-4.6,1.7h-1.7
				c-1.5,0-3.8,0.3-5.2,0.7l-3,0.8C8.2,33,9,33.3,9.5,33.6c-1.1-0.3-2.1-0.4-3.2-0.4l-0.4,0.1c0,0-0.1,2.3,1.2,3
				c0.7,0.4,0.6,1.4,0.8,2.5c-0.3,0.4-0.6,0.8-0.7,1.2c-0.6,1.4-0.8,2.6-0.6,4.1c0.3-1,0.9-2,1.6-2.9c-0.5,1.3-0.7,2.7-0.2,4
				c0.2-1,0.5-2,1-2.9c0,1-0.1,2,0.3,2.9c0.6-0.9,1.1-2.1,1.6-3.2c0.1,0.1,0.3,0.1,0.4,0.2c0.7,2.3-0.4,4.7-0.3,7
				c0.4-1.3,0.8-2.6,1.5-3.7c-0.5,2.3,0.1,4,0.7,6.2c-0.1-1.2,0.1-2.6,0.7-3.7c-0.1,2,0.5,4.1,1.7,5.7c0.1-2,0.4-4.4,1.5-6
				c0.5,1.8-0.4,3.8,0.6,5.7c-0.1-1.4,0.4-2.9,0.9-4.2c0,1.2-0.1,2.5,0.3,3.6c0.3-1.6,0.2-3.4,1.1-5c0,1.4,0.2,3,1.1,4.2
				c-0.1-1.3-0.4-2.6,0-3.8c0,0.9,0.2,1.9,0.8,2.6c0-1.2,0.1-2.3,0.5-3.4c-0.1,0.9,0,1.8,0.4,2.5c-0.1-0.9-0.1-1.8-0.1-2.7
				c0.2,0.9,0.5,2,1.1,2.7c0-1.2-0.1-2.4,0.1-3.7c0.3,0.2,0.5,0.3,0.6,0.4c1,1.3,3.5,10.5,3.5,10.5l22.6-5.7
				C50.6,51.6,40.5,38.9,41.2,32.3z M6.6,44.2L6.6,44.2L6.6,44.2C6.6,44.3,6.6,44.3,6.6,44.2z"/>
		</g>
		<g>
			<path fill="#FFFFFF" d="M24.9,32.8h-2.2h-0.2l0-0.2c0-0.7,0.3-1.4,1.1-1.4c0.7,0,1.6,0.7,1.6,1.4v0.2L24.9,32.8L24.9,32.8z"/>
			<path fill="#6E453D" d="M23.6,31.3c-0.6,0-0.8,0.6-0.8,1.2c0,0,0,0,0,0h1.1v-1.1C23.8,31.4,23.7,31.3,23.6,31.3z"/>
			<circle fill="#FFFFFF" cx="23.8" cy="31.6" r="0.3"/>
		</g>
		<ellipse fill="#FFFFFF" cx="8.3" cy="34.1" rx="0.4" ry="0.3"/>
		<g>
			<path fill="#6E453D" d="M37.6,26.6c0.3-0.5,0.7-0.9,1-1.4c0.4-0.6,0.9-0.5,1.1,0.2c0.6,2.2,1,5-0.5,5.6c-0.6,0.3-1.3-0.5-1.6-1.2
				L37.3,29C37.1,28.3,37.2,27.1,37.6,26.6z"/>
		</g>
	</g>
	<path fill="#321B15" d="M79.8,42.8c-0.3-0.6,0-1,0.7-0.8c7.5,2.6,5.3,15.4,2.9,20.4l-6.1-4.9C82.4,54.2,81.8,47.7,79.8,42.8z"/>
	<path fill="#321B15" d="M31.7,74c-1.2,4.9,3.4,6.8,3.1,11c-0.3,3.7-5.5,2.6-4,6.7c7.7,0.5,19.8-1,15-11.9L31.7,74z"/>
	<g>
		<path fill="#321B15" d="M96.1,78.2c-0.9-4.1-4.7-6.3-7.5-9.1c-1.1-1.1-1.8-2.4-2.5-3.6c-1.2-4.8-1.9-9.5-1.9-13.2
			c-10.4,9.4-29.8,8.1-38.2-7.3c0,0-20.4,4.2-19.8,6.6c0.7,2.5,1.1,5.1,1.3,7.4c-0.6,2.8-2.1,5.4-1.5,8.2c0.1-0.9,0.4-1.2,1.1-1.7
			c-0.7,1.2-0.7,2.7-1.4,3.9c0.4-0.4,0.9-0.7,1.3-1.1c-0.4,0.9-1,1.8-1.7,2.5c0.8-0.2,1.5-0.7,2-1.3c-0.7,0.9-0.8,2.1-0.6,3.3
			c0.2-0.9,0.7-1.9,1.4-2.6c-0.4,1.3-0.6,3,0.1,4.2c0.1-0.8,0.4-1.6,0.9-2.3c0.1,0.1,0.1,0.2,0.2,0.4c-0.1,1-0.1,1.9,0.5,2.7
			c0-0.5,0.2-1,0.2-1.4l0,0c0,1.6,0.8,3.2,1.3,4.5c0.1-0.8,0.2-1.5,0.1-2.3c0.5,1.8,2.2,3,3.9,3.7c-0.4-0.6-0.7-1.1-0.9-1.6
			c1.6,0.9,3.4,1.5,5.6,1.9c1.7,0.3,3.5,0.6,5.4,0.9c0,0.3,0,0.6,0.1,1c0.4,1.2,1.2,2.8,0.9,4.2c0.8-0.7,1.5-1.6,1.7-2.8
			c-0.1,0.3-0.1,1.3-0.2,1.7c0.8-0.6,1.4-1.4,1.7-2.4c0.1,0.9,0.4,1.9,0.8,2.6c0.1-0.7,0.2-1.6,0.2-2.3c0.7,1.1,1.5,2.2,2.7,2.8
			c0-0.9-0.1-1.9-0.1-2.8c0.6,0.9,1.4,1.9,2.2,2.8c0.1-0.9,0.4-1.7,0.7-2.6c0,0.7,0.2,1.4,0.2,2.2c0.4-0.5,0.9-0.9,1.2-1.6
			c0,0.6,0.2,1.2,0.2,1.8c0.3-0.6,0.6-1.4,0.9-2.1c0.2,0.8,0,1.7-0.4,2.3c0.8-0.5,1.5-1.4,1.7-2.4c0.1,0.8,0,1.6-0.4,2.4
			c0.9-0.4,1.5-1.4,1.5-2.3c0.5,1.5,2,2.4,3.4,2.8c-0.6-0.7-1.3-1.5-1.6-2.5c0.9,1.2,2.2,1.9,3.5,2.2c-0.5-0.7-1.4-1.4-1.9-2.2
			c1.1,1.2,3.5,2,5,1.5c-0.5,0.2-2.1-0.8-2.6-1c1.8-0.2,4.2,0.1,3.6,2.8c0.7-0.5,1.2-1.4,1.5-2.2c-0.1,0.5-0.1,1-0.3,1.4
			c0.8-0.5,2.5-1.4,3.1-2c-0.4,0.4-0.6,1.1-0.9,1.4c1.6-0.1,3.3-1.1,3.9-2.6l-0.4,0.2c0,1.2-0.2,1.7-0.5,2.8
			c1.2-0.5,2.1-2.1,2.3-3.6c3.1,0,6-0.1,8.7-0.2c0.3,0,0.5-1.7,0.5-1.9c0.6,1,0.3,2.1,1.1,3.1c0-1-0.2-2-0.5-3
			c1.2,0.5,2.1,1.5,2.6,2.7c0,0,0,0,0,0c0-1,0-1.9-0.4-2.8c1.1,0.8,1,2.8,0.9,3.9c0.7-1.8,0.3-3.7,0.2-5.6c0.3,0.8,0.8,1.5,1.1,2.2
			c0-0.8-0.4-2.5-0.6-3.6c0.5,0.8,1.3,1.4,1.7,2.2c0-1.6-0.6-3.1-1.8-4.2C94.2,76.2,95.4,77.1,96.1,78.2z"/>
	</g>
	<path fill="#321B15" d="M79.1,84.7c1.6,1.2,5.4,2.8,5.4,5.1c0,1-2.5,1.4-1.8,3c0.1,0.3,0.6,0.6,0.9,0.6c2.8,0.3,5.7-0.5,6.9-2.7
		c1.2-2.3,1.3-5.5,0.5-8c-0.2-0.5-1.6-4.1-2.2-4c0,0-15.3,0.8-15.3,0.8C74.3,81.9,77.2,83.3,79.1,84.7z"/>
	<path fill="#CD3E27" d="M46.2,45.5c0-1.1-0.7-2.3-1.9-3.7c-1.7,5-13,9-18.5,8.9l0.8,4.5c1.3-0.1,2.5-0.2,3.8-0.4
		C35.3,54,45.9,50.2,46.2,45.5z"/>
	<polygon fill="#E45B2E" points="26.8,51 27.4,54.5 28.1,54.4 27.3,50.9 	"/>
</g>
</svg>
